<?xml version="1.0" standalone="no"?><!DOCTYPE svg PUBLIC "-//W3C//DTD SVG 1.1//EN" "http://www.w3.org/Graphics/SVG/1.1/DTD/svg11.dtd"><svg t="1668387994715" class="icon" viewBox="0 0 1024 1024" version="1.1" xmlns="http://www.w3.org/2000/svg" p-id="5247" xmlns:xlink="http://www.w3.org/1999/xlink" width="200" height="200"><path d="M512.9728 508.0064m-450.816 0a450.816 450.816 0 1 0 901.632 0 450.816 450.816 0 1 0-901.632 0Z" fill="#59ADF8" p-id="5248"></path><path d="M726.3232 260.352H299.6224c-45.1072 0-81.664 36.5568-81.664 81.664v322.8672c0 45.1072 36.5568 81.664 81.664 81.664h426.7008c45.1072 0 81.664-36.5568 81.664-81.664V342.016c0-45.1072-36.5568-81.664-81.664-81.664zM346.0608 505.0368L452.096 405.9136a29.88032 29.88032 0 0 1 40.0384-0.7168l39.168 34.048 58.5728-58.0096h-32.4096c-16.5376 0-29.9008-13.4144-29.9008-29.9008s13.4144-29.9008 29.9008-29.9008h102.912a29.9008 29.9008 0 0 1 29.9008 29.9008v94.72a29.9008 29.9008 0 0 1-59.8016 0v-20.736l-76.8 75.9808a29.9264 29.9264 0 0 1-40.6528 1.3312l-39.7312-34.56-86.3232 80.6912a29.9008 29.9008 0 0 1-20.4288 8.0384 29.8496 29.8496 0 0 1-21.8624-9.472 29.83424 29.83424 0 0 1 1.3824-42.2912z m380.7232 167.0656H307.6096a29.9008 29.9008 0 0 1 0-59.8016h419.1744a29.9008 29.9008 0 0 1 29.9008 29.9008c0 16.5376-13.3632 29.9008-29.9008 29.9008z" fill="#FFFFFF" p-id="5249"></path></svg>