<?xml version="1.0" standalone="no"?><!DOCTYPE svg PUBLIC "-//W3C//DTD SVG 1.1//EN" "http://www.w3.org/Graphics/SVG/1.1/DTD/svg11.dtd"><svg t="1668388198214" class="icon" viewBox="0 0 1024 1024" version="1.1" xmlns="http://www.w3.org/2000/svg" p-id="5247" xmlns:xlink="http://www.w3.org/1999/xlink" width="200" height="200"><path d="M511.1296 513.6896m-450.816 0a450.816 450.816 0 1 0 901.632 0 450.816 450.816 0 1 0-901.632 0Z" fill="#FF5C64" p-id="5248"></path><path d="M664.3712 227.584H357.888c-57.3952 0-104.0896 46.6944-104.0896 104.0896v412.4672c0 16.0256 8.2944 30.3616 22.1184 38.4 13.8752 8.0384 30.4128 8.0896 44.3392 0.1024l83.2-47.616 82.5856 56.8832a44.25216 44.25216 0 0 0 25.1904 7.8848c8.6528 0 17.3056-2.56 24.8832-7.68l84.4288-57.1392 81.152 47.2064c13.8752 8.0896 30.5152 8.1408 44.4416 0.1024 13.9264-8.0384 22.272-22.4256 22.272-38.5024v-412.16c0.0512-57.344-46.6432-104.0384-104.0384-104.0384z m-36.9664 331.0592H493.3632c-15.8208 0-28.6208-12.8-28.6208-28.6208v-153.6c0-15.8208 12.8-28.6208 28.6208-28.6208s28.6208 12.8 28.6208 28.6208v124.9792h105.4208c15.8208 0 28.6208 12.8 28.6208 28.6208s-12.8512 28.6208-28.6208 28.6208z" fill="#FFFFFF" p-id="5249"></path></svg>