<?xml version="1.0" standalone="no"?><!DOCTYPE svg PUBLIC "-//W3C//DTD SVG 1.1//EN" "http://www.w3.org/Graphics/SVG/1.1/DTD/svg11.dtd"><svg t="1668388244326" class="icon" viewBox="0 0 1024 1024" version="1.1" xmlns="http://www.w3.org/2000/svg" p-id="5394" xmlns:xlink="http://www.w3.org/1999/xlink" width="200" height="200"><path d="M505.088 513.1264m-450.816 0a450.816 450.816 0 1 0 901.632 0 450.816 450.816 0 1 0-901.632 0Z" fill="#FFBC42" p-id="5395"></path><path d="M370.5344 362.8032a33.28 33.28 0 0 1-33.28-33.28V239.1552a33.28 33.28 0 1 1 66.56 0v90.368a33.28 33.28 0 0 1-33.28 33.28zM630.1696 362.8032a33.28 33.28 0 0 1-33.28-33.28V239.1552a33.28 33.28 0 1 1 66.56 0v90.368a33.28 33.28 0 0 1-33.28 33.28z" fill="#FFFFFF" p-id="5396"></path><path d="M723.712 264.5504h-20.0192v64.9728c0 40.96-33.28 74.24-74.24 74.24s-74.24-33.28-74.24-74.24V264.5504H444.7744v64.9728c0 40.96-33.28 74.24-74.24 74.24s-74.24-33.28-74.24-74.24V264.5504h-15.36c-37.0176 0-67.1232 30.1056-67.1232 67.1232v365.9776c0 53.7088 43.6736 97.3824 97.3824 97.3824h382.208c53.7088 0 97.3824-43.6736 97.3824-97.3824V331.6224c0.0512-36.9664-30.0544-67.072-67.072-67.072z m-56.7296 253.2864l-79.2064 79.872a50.00192 50.00192 0 0 1-35.328 14.6944h-0.4608a49.9712 49.9712 0 0 1-35.4816-15.4112l-45.4144-47.5136-70.0928 69.5296a33.14688 33.14688 0 0 1-23.4496 9.6768 33.24928 33.24928 0 0 1-23.3984-56.8832l82.2784-81.6128c9.5744-9.472 22.3232-14.5408 35.7376-14.4384 13.4656 0.2048 26.0096 5.632 35.328 15.4112l45.312 47.4112 67.072-67.6352a33.24928 33.24928 0 0 1 47.0528-0.2048c12.9024 12.9536 13.0048 34.048 0.0512 47.104z" fill="#FFFFFF" p-id="5397"></path></svg>