<?xml version="1.0" standalone="no"?><!DOCTYPE svg PUBLIC "-//W3C//DTD SVG 1.1//EN" "http://www.w3.org/Graphics/SVG/1.1/DTD/svg11.dtd"><svg t="1668388137696" class="icon" viewBox="0 0 1024 1024" version="1.1" xmlns="http://www.w3.org/2000/svg" p-id="5395" xmlns:xlink="http://www.w3.org/1999/xlink" width="200" height="200"><path d="M509.44 513.1264m-450.816 0a450.816 450.816 0 1 0 901.632 0 450.816 450.816 0 1 0-901.632 0Z" fill="#8486F8" p-id="5396"></path><path d="M686.2336 228.4544H331.264c-50.8416 0-92.2112 41.3696-92.2112 92.2112v378.6752c0 50.8416 41.3696 92.2112 92.2112 92.2112l222.2592 0.1024-50.9952-88.32a21.92896 21.92896 0 0 1 0-21.8624l70.5024-122.1632a21.80096 21.80096 0 0 1 18.8928-10.9056h141.056c7.7824 0 15.0016 4.1472 18.8928 10.9056l26.5728 46.0288V320.7168c0-50.8928-41.3696-92.2624-92.2112-92.2624zM434.688 663.3472H365.4656a33.28 33.28 0 1 1 0-66.56H434.688a33.28 33.28 0 1 1 0 66.56z m65.7408-133.376H365.4656a33.28 33.28 0 1 1 0-66.56h134.9632a33.28 33.28 0 1 1 0 66.56z m154.8288-133.376h-289.792a33.28 33.28 0 1 1 0-66.56h289.792a33.28 33.28 0 1 1 0 66.56z" fill="#FFFFFF" p-id="5397"></path><path d="M729.0368 601.1392a23.97184 23.97184 0 0 0-20.7872-11.9808h-91.5968c-8.5504 0-16.4864 4.5568-20.7872 11.9808l-45.824 79.36a23.8592 23.8592 0 0 0 0 23.9616l45.824 79.36a23.97184 23.97184 0 0 0 20.7872 11.9808h91.5968c8.5504 0 16.4864-4.5568 20.7872-11.9808l45.824-79.36a23.8592 23.8592 0 0 0 0-23.9616l-45.824-79.36z m-66.6112 134.2976c-23.7568 0-42.9568-19.2512-42.9568-42.9568s19.2512-42.9568 42.9568-42.9568 42.9568 19.2512 42.9568 42.9568-19.2 42.9568-42.9568 42.9568z" fill="#FFFFFF" p-id="5398"></path></svg>